<mxfile host="Electron" agent="Mozilla/5.0 (Windows NT 10.0; Win64; x64) AppleWebKit/537.36 (KHTML, like Gecko) draw.io/26.1.1 Chrome/132.0.6834.210 Electron/34.3.3 Safari/537.36" version="26.1.1">
  <diagram name="Página-1" id="yWMFQPq8ln1ge6CO9rSt">
    <mxGraphModel dx="3347" dy="2696" grid="1" gridSize="10" guides="1" tooltips="1" connect="1" arrows="1" fold="1" page="1" pageScale="1" pageWidth="1800" pageHeight="1800" math="0" shadow="0">
      <root>
        <mxCell id="0" />
        <mxCell id="1" parent="0" />
        <mxCell id="ldPR4kNLQCRKK4Y74_K6-108" value="" style="rounded=0;whiteSpace=wrap;html=1;fillColor=#f5f5f5;fontColor=#333333;strokeColor=#666666;" vertex="1" parent="1">
          <mxGeometry x="-70" y="-20" width="1110" height="1870" as="geometry" />
        </mxCell>
        <mxCell id="ldPR4kNLQCRKK4Y74_K6-104" style="edgeStyle=orthogonalEdgeStyle;rounded=0;orthogonalLoop=1;jettySize=auto;html=1;exitX=0.486;exitY=1.002;exitDx=0;exitDy=0;exitPerimeter=0;" edge="1" parent="1" source="ldPR4kNLQCRKK4Y74_K6-78" target="ldPR4kNLQCRKK4Y74_K6-80">
          <mxGeometry relative="1" as="geometry" />
        </mxCell>
        <mxCell id="ldPR4kNLQCRKK4Y74_K6-78" value="" style="rounded=1;whiteSpace=wrap;html=1;dashed=1;dashPattern=8 8;fillColor=#dae8fc;strokeColor=#6c8ebf;" vertex="1" parent="1">
          <mxGeometry x="11.25" y="1370" width="975" height="370" as="geometry" />
        </mxCell>
        <mxCell id="ldPR4kNLQCRKK4Y74_K6-76" value="" style="rounded=1;whiteSpace=wrap;html=1;dashed=1;dashPattern=8 8;fillColor=#fff2cc;strokeColor=#d6b656;" vertex="1" parent="1">
          <mxGeometry y="920" width="970" height="400" as="geometry" />
        </mxCell>
        <mxCell id="ldPR4kNLQCRKK4Y74_K6-84" style="edgeStyle=orthogonalEdgeStyle;rounded=0;orthogonalLoop=1;jettySize=auto;html=1;exitX=0.5;exitY=1;exitDx=0;exitDy=0;entryX=0.5;entryY=0;entryDx=0;entryDy=0;strokeWidth=1;" edge="1" parent="1" source="ldPR4kNLQCRKK4Y74_K6-74" target="ldPR4kNLQCRKK4Y74_K6-64">
          <mxGeometry relative="1" as="geometry">
            <Array as="points">
              <mxPoint x="472" y="820" />
            </Array>
          </mxGeometry>
        </mxCell>
        <mxCell id="ldPR4kNLQCRKK4Y74_K6-85" value="Push" style="edgeLabel;html=1;align=center;verticalAlign=middle;resizable=0;points=[];" vertex="1" connectable="0" parent="ldPR4kNLQCRKK4Y74_K6-84">
          <mxGeometry x="0.1016" y="3" relative="1" as="geometry">
            <mxPoint as="offset" />
          </mxGeometry>
        </mxCell>
        <mxCell id="ldPR4kNLQCRKK4Y74_K6-74" value="" style="rounded=1;whiteSpace=wrap;html=1;dashed=1;dashPattern=8 8;fillColor=#d0cee2;strokeColor=#56517e;" vertex="1" parent="1">
          <mxGeometry y="640" width="975" height="180" as="geometry" />
        </mxCell>
        <mxCell id="ldPR4kNLQCRKK4Y74_K6-82" style="edgeStyle=orthogonalEdgeStyle;rounded=0;orthogonalLoop=1;jettySize=auto;html=1;exitX=0.487;exitY=1.017;exitDx=0;exitDy=0;strokeWidth=1;exitPerimeter=0;entryX=0.487;entryY=0.003;entryDx=0;entryDy=0;entryPerimeter=0;" edge="1" parent="1" source="ldPR4kNLQCRKK4Y74_K6-70" target="ldPR4kNLQCRKK4Y74_K6-74">
          <mxGeometry relative="1" as="geometry" />
        </mxCell>
        <mxCell id="ldPR4kNLQCRKK4Y74_K6-70" value="" style="rounded=1;whiteSpace=wrap;html=1;dashed=1;dashPattern=8 8;fillColor=#b0e3e6;strokeColor=#0e8088;" vertex="1" parent="1">
          <mxGeometry y="380" width="975" height="200" as="geometry" />
        </mxCell>
        <mxCell id="ldPR4kNLQCRKK4Y74_K6-69" value="" style="rounded=1;whiteSpace=wrap;html=1;dashed=1;dashPattern=8 8;fillColor=#fad9d5;strokeColor=#ae4132;" vertex="1" parent="1">
          <mxGeometry x="-10" y="120" width="975" height="200" as="geometry" />
        </mxCell>
        <mxCell id="ldPR4kNLQCRKK4Y74_K6-55" value="Escribir sub módulo" style="whiteSpace=wrap;html=1;aspect=fixed;" vertex="1" parent="1">
          <mxGeometry x="417.5" y="670" width="120" height="120" as="geometry" />
        </mxCell>
        <mxCell id="ldPR4kNLQCRKK4Y74_K6-27" value="Crear repositorios base y resources con Mozart Pipeline" style="whiteSpace=wrap;html=1;aspect=fixed;" vertex="1" parent="1">
          <mxGeometry x="330" y="170" width="120" height="120" as="geometry" />
        </mxCell>
        <mxCell id="ldPR4kNLQCRKK4Y74_K6-31" value="" style="shape=image;verticalLabelPosition=bottom;labelBackgroundColor=default;verticalAlign=top;aspect=fixed;imageAspect=0;image=https://codilime.com/img/github-actions-logo-ci-cd-tools.png;" vertex="1" parent="1">
          <mxGeometry x="330" y="170" width="50" height="50" as="geometry" />
        </mxCell>
        <mxCell id="ldPR4kNLQCRKK4Y74_K6-39" style="edgeStyle=orthogonalEdgeStyle;rounded=0;orthogonalLoop=1;jettySize=auto;html=1;exitX=1;exitY=0.5;exitDx=0;exitDy=0;entryX=0;entryY=0.5;entryDx=0;entryDy=0;" edge="1" parent="1" source="ldPR4kNLQCRKK4Y74_K6-32" target="ldPR4kNLQCRKK4Y74_K6-33">
          <mxGeometry relative="1" as="geometry" />
        </mxCell>
        <mxCell id="ldPR4kNLQCRKK4Y74_K6-32" value="Crear RG" style="whiteSpace=wrap;html=1;aspect=fixed;" vertex="1" parent="1">
          <mxGeometry x="475" y="170" width="120" height="120" as="geometry" />
        </mxCell>
        <mxCell id="ldPR4kNLQCRKK4Y74_K6-33" value="Crear Storage + Contenedor&lt;div&gt;&quot;tfstate&quot;&lt;/div&gt;" style="shape=dataStorage;whiteSpace=wrap;html=1;fixedSize=1;" vertex="1" parent="1">
          <mxGeometry x="660" y="170" width="210" height="120" as="geometry" />
        </mxCell>
        <mxCell id="ldPR4kNLQCRKK4Y74_K6-34" value="" style="image;sketch=0;aspect=fixed;html=1;points=[];align=center;fontSize=12;image=img/lib/mscae/ResourceGroup.svg;" vertex="1" parent="1">
          <mxGeometry x="480" y="180" width="37.5" height="30" as="geometry" />
        </mxCell>
        <mxCell id="ldPR4kNLQCRKK4Y74_K6-35" value="" style="image;aspect=fixed;html=1;points=[];align=center;fontSize=12;image=img/lib/azure2/general/Storage_Container.svg;" vertex="1" parent="1">
          <mxGeometry x="690" y="180" width="36.92" height="30" as="geometry" />
        </mxCell>
        <mxCell id="ldPR4kNLQCRKK4Y74_K6-40" value="Crear sub módulo para desplegar App Registration" style="whiteSpace=wrap;html=1;aspect=fixed;" vertex="1" parent="1">
          <mxGeometry x="180" y="170" width="120" height="120" as="geometry" />
        </mxCell>
        <mxCell id="ldPR4kNLQCRKK4Y74_K6-42" value="" style="dashed=0;outlineConnect=0;html=1;align=center;labelPosition=center;verticalLabelPosition=bottom;verticalAlign=top;shape=mxgraph.weblogos.github" vertex="1" parent="1">
          <mxGeometry x="190" y="175" width="30" height="25" as="geometry" />
        </mxCell>
        <mxCell id="ldPR4kNLQCRKK4Y74_K6-43" value="" style="shape=image;verticalLabelPosition=bottom;labelBackgroundColor=default;verticalAlign=top;aspect=fixed;imageAspect=0;image=https://codilime.com/img/github-actions-logo-ci-cd-tools.png;" vertex="1" parent="1">
          <mxGeometry x="220" y="170" width="35" height="35" as="geometry" />
        </mxCell>
        <mxCell id="ldPR4kNLQCRKK4Y74_K6-44" value="" style="shape=image;verticalLabelPosition=bottom;labelBackgroundColor=default;verticalAlign=top;aspect=fixed;imageAspect=0;image=https://static-00.iconduck.com/assets.00/terraform-icon-1803x2048-hodrzd3t.png;" vertex="1" parent="1">
          <mxGeometry x="260" y="172.5" width="26.4" height="30" as="geometry" />
        </mxCell>
        <mxCell id="ldPR4kNLQCRKK4Y74_K6-46" value="&lt;div&gt;&lt;br&gt;&lt;/div&gt;&lt;div&gt;&lt;br&gt;&lt;/div&gt;Secrets del repo" style="shape=manualInput;whiteSpace=wrap;html=1;" vertex="1" parent="1">
          <mxGeometry x="220" y="435" width="130" height="120" as="geometry" />
        </mxCell>
        <mxCell id="ldPR4kNLQCRKK4Y74_K6-47" value="" style="shape=image;verticalLabelPosition=bottom;labelBackgroundColor=default;verticalAlign=top;aspect=fixed;imageAspect=0;image=https://codilime.com/img/github-actions-logo-ci-cd-tools.png;" vertex="1" parent="1">
          <mxGeometry x="310" y="450" width="35" height="35" as="geometry" />
        </mxCell>
        <mxCell id="ldPR4kNLQCRKK4Y74_K6-48" value="" style="dashed=0;outlineConnect=0;html=1;align=center;labelPosition=center;verticalLabelPosition=bottom;verticalAlign=top;shape=mxgraph.weblogos.github" vertex="1" parent="1">
          <mxGeometry x="280" y="455" width="30" height="25" as="geometry" />
        </mxCell>
        <mxCell id="ldPR4kNLQCRKK4Y74_K6-49" value="Configurar piplines" style="whiteSpace=wrap;html=1;aspect=fixed;" vertex="1" parent="1">
          <mxGeometry x="397.5" y="435" width="120" height="120" as="geometry" />
        </mxCell>
        <mxCell id="ldPR4kNLQCRKK4Y74_K6-50" value="" style="shape=image;verticalLabelPosition=bottom;labelBackgroundColor=default;verticalAlign=top;aspect=fixed;imageAspect=0;image=https://codilime.com/img/github-actions-logo-ci-cd-tools.png;" vertex="1" parent="1">
          <mxGeometry x="400" y="435" width="50" height="50" as="geometry" />
        </mxCell>
        <mxCell id="ldPR4kNLQCRKK4Y74_K6-54" value="" style="shape=image;verticalLabelPosition=bottom;labelBackgroundColor=default;verticalAlign=top;aspect=fixed;imageAspect=0;image=https://static-00.iconduck.com/assets.00/terraform-icon-1803x2048-hodrzd3t.png;" vertex="1" parent="1">
          <mxGeometry x="423.6" y="680" width="26.4" height="30" as="geometry" />
        </mxCell>
        <mxCell id="ldPR4kNLQCRKK4Y74_K6-87" style="edgeStyle=orthogonalEdgeStyle;rounded=0;orthogonalLoop=1;jettySize=auto;html=1;exitX=0.5;exitY=1;exitDx=0;exitDy=0;entryX=1;entryY=0.5;entryDx=0;entryDy=0;dashed=1;" edge="1" parent="1" source="ldPR4kNLQCRKK4Y74_K6-56" target="ldPR4kNLQCRKK4Y74_K6-113">
          <mxGeometry relative="1" as="geometry">
            <mxPoint x="542.7500000000005" y="1250" as="targetPoint" />
          </mxGeometry>
        </mxCell>
        <mxCell id="ldPR4kNLQCRKK4Y74_K6-88" value="No" style="edgeLabel;html=1;align=center;verticalAlign=middle;resizable=0;points=[];" vertex="1" connectable="0" parent="ldPR4kNLQCRKK4Y74_K6-87">
          <mxGeometry x="-0.3538" y="3" relative="1" as="geometry">
            <mxPoint as="offset" />
          </mxGeometry>
        </mxCell>
        <mxCell id="ldPR4kNLQCRKK4Y74_K6-56" value="Errores encontrados" style="rhombus;whiteSpace=wrap;html=1;" vertex="1" parent="1">
          <mxGeometry x="620" y="1070" width="130" height="130" as="geometry" />
        </mxCell>
        <mxCell id="ldPR4kNLQCRKK4Y74_K6-93" style="edgeStyle=orthogonalEdgeStyle;rounded=0;orthogonalLoop=1;jettySize=auto;html=1;exitX=0.5;exitY=1;exitDx=0;exitDy=0;entryX=0;entryY=0.5;entryDx=0;entryDy=0;" edge="1" parent="1" source="ldPR4kNLQCRKK4Y74_K6-64" target="ldPR4kNLQCRKK4Y74_K6-56">
          <mxGeometry relative="1" as="geometry">
            <Array as="points">
              <mxPoint x="472" y="1105" />
              <mxPoint x="472" y="1135" />
            </Array>
          </mxGeometry>
        </mxCell>
        <mxCell id="ldPR4kNLQCRKK4Y74_K6-64" value="&lt;div style=&quot;text-align: center;&quot;&gt;&lt;span style=&quot;background-color: transparent; color: light-dark(rgb(0, 0, 0), rgb(255, 255, 255));&quot;&gt;Checks Jobs&lt;/span&gt;&lt;/div&gt;&lt;div&gt;&lt;ul&gt;&lt;li style=&quot;text-align: center;&quot;&gt;Orca Security - Secrets&lt;/li&gt;&lt;li&gt;Pre - Commit&lt;/li&gt;&lt;li&gt;Integration Plan&lt;/li&gt;&lt;/ul&gt;&lt;/div&gt;" style="shape=hexagon;perimeter=hexagonPerimeter2;whiteSpace=wrap;html=1;size=0.25;align=left;" vertex="1" parent="1">
          <mxGeometry x="372.5" y="940" width="200" height="160" as="geometry" />
        </mxCell>
        <mxCell id="ldPR4kNLQCRKK4Y74_K6-95" style="edgeStyle=orthogonalEdgeStyle;rounded=0;orthogonalLoop=1;jettySize=auto;html=1;entryX=0.5;entryY=0;entryDx=0;entryDy=0;exitX=0.225;exitY=0.493;exitDx=0;exitDy=0;exitPerimeter=0;" edge="1" parent="1" source="ldPR4kNLQCRKK4Y74_K6-65" target="ldPR4kNLQCRKK4Y74_K6-67">
          <mxGeometry relative="1" as="geometry" />
        </mxCell>
        <mxCell id="ldPR4kNLQCRKK4Y74_K6-65" value="Merge" style="strokeWidth=2;html=1;shape=mxgraph.flowchart.merge_or_storage;whiteSpace=wrap;align=center;" vertex="1" parent="1">
          <mxGeometry x="423.6" y="1400" width="109.75" height="100" as="geometry" />
        </mxCell>
        <mxCell id="ldPR4kNLQCRKK4Y74_K6-110" style="edgeStyle=orthogonalEdgeStyle;rounded=0;orthogonalLoop=1;jettySize=auto;html=1;exitX=0.5;exitY=1;exitDx=0;exitDy=0;entryX=0;entryY=0.5;entryDx=0;entryDy=0;" edge="1" parent="1" source="ldPR4kNLQCRKK4Y74_K6-67" target="ldPR4kNLQCRKK4Y74_K6-100">
          <mxGeometry relative="1" as="geometry" />
        </mxCell>
        <mxCell id="ldPR4kNLQCRKK4Y74_K6-67" value="Apply" style="whiteSpace=wrap;html=1;aspect=fixed;" vertex="1" parent="1">
          <mxGeometry x="285" y="1490" width="110" height="110" as="geometry" />
        </mxCell>
        <mxCell id="ldPR4kNLQCRKK4Y74_K6-71" value="&lt;b&gt;PREPARACIÓN&lt;/b&gt;" style="text;html=1;align=center;verticalAlign=middle;whiteSpace=wrap;rounded=0;" vertex="1" parent="1">
          <mxGeometry x="10" y="130" width="100" height="30" as="geometry" />
        </mxCell>
        <mxCell id="ldPR4kNLQCRKK4Y74_K6-72" value="&lt;b&gt;CONFIGURACIÓN&lt;/b&gt;" style="text;html=1;align=center;verticalAlign=middle;whiteSpace=wrap;rounded=0;" vertex="1" parent="1">
          <mxGeometry x="20" y="390" width="100" height="30" as="geometry" />
        </mxCell>
        <mxCell id="ldPR4kNLQCRKK4Y74_K6-73" value="&lt;b&gt;PREPARACIÓN&lt;/b&gt;" style="text;html=1;align=center;verticalAlign=middle;whiteSpace=wrap;rounded=0;" vertex="1" parent="1">
          <mxGeometry x="30" y="150" width="100" height="30" as="geometry" />
        </mxCell>
        <mxCell id="ldPR4kNLQCRKK4Y74_K6-75" value="&lt;b&gt;ESCRITURA DE CÓDIGO&lt;/b&gt;" style="text;html=1;align=center;verticalAlign=middle;whiteSpace=wrap;rounded=0;" vertex="1" parent="1">
          <mxGeometry x="20" y="650" width="170" height="30" as="geometry" />
        </mxCell>
        <mxCell id="ldPR4kNLQCRKK4Y74_K6-77" value="&lt;b&gt;VALIDACIÓN DEL CÓDIGO&lt;/b&gt;" style="text;html=1;align=center;verticalAlign=middle;whiteSpace=wrap;rounded=0;" vertex="1" parent="1">
          <mxGeometry x="30" y="940" width="170" height="30" as="geometry" />
        </mxCell>
        <mxCell id="ldPR4kNLQCRKK4Y74_K6-109" style="edgeStyle=orthogonalEdgeStyle;rounded=0;orthogonalLoop=1;jettySize=auto;html=1;exitX=0.5;exitY=0.5;exitDx=0;exitDy=25;exitPerimeter=0;entryX=0.5;entryY=0;entryDx=0;entryDy=0;strokeWidth=1;" edge="1" parent="1" source="ldPR4kNLQCRKK4Y74_K6-79" target="ldPR4kNLQCRKK4Y74_K6-69">
          <mxGeometry relative="1" as="geometry" />
        </mxCell>
        <mxCell id="ldPR4kNLQCRKK4Y74_K6-79" value="INICIO" style="html=1;dashed=0;whiteSpace=wrap;shape=mxgraph.dfd.start" vertex="1" parent="1">
          <mxGeometry x="422.5" y="20" width="110" height="50" as="geometry" />
        </mxCell>
        <mxCell id="ldPR4kNLQCRKK4Y74_K6-80" value="FIN" style="html=1;dashed=0;whiteSpace=wrap;shape=mxgraph.dfd.start" vertex="1" parent="1">
          <mxGeometry x="430" y="1780" width="110" height="50" as="geometry" />
        </mxCell>
        <mxCell id="ldPR4kNLQCRKK4Y74_K6-81" style="edgeStyle=orthogonalEdgeStyle;rounded=0;orthogonalLoop=1;jettySize=auto;html=1;exitX=0.5;exitY=1;exitDx=0;exitDy=0;entryX=0.49;entryY=-0.002;entryDx=0;entryDy=0;entryPerimeter=0;strokeWidth=1;" edge="1" parent="1" source="ldPR4kNLQCRKK4Y74_K6-69" target="ldPR4kNLQCRKK4Y74_K6-70">
          <mxGeometry relative="1" as="geometry" />
        </mxCell>
        <mxCell id="ldPR4kNLQCRKK4Y74_K6-83" value="" style="shape=image;verticalLabelPosition=bottom;labelBackgroundColor=default;verticalAlign=top;aspect=fixed;imageAspect=0;image=https://codilime.com/img/github-actions-logo-ci-cd-tools.png;" vertex="1" parent="1">
          <mxGeometry x="417.5" y="940" width="40" height="40" as="geometry" />
        </mxCell>
        <mxCell id="ldPR4kNLQCRKK4Y74_K6-89" style="edgeStyle=orthogonalEdgeStyle;rounded=1;orthogonalLoop=1;jettySize=auto;html=1;exitX=0.5;exitY=0;exitDx=0;exitDy=0;entryX=0.995;entryY=0.429;entryDx=0;entryDy=0;entryPerimeter=0;curved=0;dashed=1;" edge="1" parent="1" source="ldPR4kNLQCRKK4Y74_K6-56" target="ldPR4kNLQCRKK4Y74_K6-55">
          <mxGeometry relative="1" as="geometry" />
        </mxCell>
        <mxCell id="ldPR4kNLQCRKK4Y74_K6-90" value="SI" style="edgeLabel;html=1;align=center;verticalAlign=middle;resizable=0;points=[];" vertex="1" connectable="0" parent="ldPR4kNLQCRKK4Y74_K6-89">
          <mxGeometry x="-0.1588" relative="1" as="geometry">
            <mxPoint as="offset" />
          </mxGeometry>
        </mxCell>
        <mxCell id="ldPR4kNLQCRKK4Y74_K6-91" value="&lt;b&gt;DESPLIEGUE&lt;/b&gt;" style="text;html=1;align=center;verticalAlign=middle;whiteSpace=wrap;rounded=0;" vertex="1" parent="1">
          <mxGeometry x="40" y="1390" width="170" height="30" as="geometry" />
        </mxCell>
        <mxCell id="ldPR4kNLQCRKK4Y74_K6-97" value="" style="dashed=0;outlineConnect=0;html=1;align=center;labelPosition=center;verticalLabelPosition=bottom;verticalAlign=top;shape=mxgraph.weblogos.github" vertex="1" parent="1">
          <mxGeometry x="462.5" y="1410" width="30" height="25" as="geometry" />
        </mxCell>
        <mxCell id="ldPR4kNLQCRKK4Y74_K6-98" value="" style="shape=image;verticalLabelPosition=bottom;labelBackgroundColor=default;verticalAlign=top;aspect=fixed;imageAspect=0;image=https://static-00.iconduck.com/assets.00/terraform-icon-1803x2048-hodrzd3t.png;" vertex="1" parent="1">
          <mxGeometry x="360" y="1500" width="26.4" height="30" as="geometry" />
        </mxCell>
        <mxCell id="ldPR4kNLQCRKK4Y74_K6-99" value="" style="shape=image;verticalLabelPosition=bottom;labelBackgroundColor=default;verticalAlign=top;aspect=fixed;imageAspect=0;image=https://codilime.com/img/github-actions-logo-ci-cd-tools.png;" vertex="1" parent="1">
          <mxGeometry x="285" y="1490" width="50" height="50" as="geometry" />
        </mxCell>
        <mxCell id="ldPR4kNLQCRKK4Y74_K6-100" value="Despliegue" style="whiteSpace=wrap;html=1;aspect=fixed;" vertex="1" parent="1">
          <mxGeometry x="422.5" y="1610" width="110" height="110" as="geometry" />
        </mxCell>
        <mxCell id="ldPR4kNLQCRKK4Y74_K6-101" value="Definir recursos a desplegar y buscar plantilla correspondiente" style="whiteSpace=wrap;html=1;aspect=fixed;" vertex="1" parent="1">
          <mxGeometry x="537.5" y="435" width="120" height="120" as="geometry" />
        </mxCell>
        <mxCell id="ldPR4kNLQCRKK4Y74_K6-52" value="" style="dashed=0;outlineConnect=0;html=1;align=center;labelPosition=center;verticalLabelPosition=bottom;verticalAlign=top;shape=mxgraph.weblogos.github" vertex="1" parent="1">
          <mxGeometry x="572.5" y="437.5" width="30" height="25" as="geometry" />
        </mxCell>
        <mxCell id="ldPR4kNLQCRKK4Y74_K6-96" value="" style="shape=image;verticalLabelPosition=bottom;labelBackgroundColor=default;verticalAlign=top;aspect=fixed;imageAspect=0;image=https://static-00.iconduck.com/assets.00/terraform-icon-1803x2048-hodrzd3t.png;" vertex="1" parent="1">
          <mxGeometry x="542.75" y="435" width="26.4" height="30" as="geometry" />
        </mxCell>
        <mxCell id="ldPR4kNLQCRKK4Y74_K6-102" value="" style="shape=image;verticalLabelPosition=bottom;labelBackgroundColor=default;verticalAlign=top;aspect=fixed;imageAspect=0;image=https://static-00.iconduck.com/assets.00/terraform-icon-1803x2048-hodrzd3t.png;" vertex="1" parent="1">
          <mxGeometry x="431.1" y="1620" width="26.4" height="30" as="geometry" />
        </mxCell>
        <mxCell id="ldPR4kNLQCRKK4Y74_K6-103" value="" style="shape=image;verticalLabelPosition=bottom;labelBackgroundColor=default;verticalAlign=top;aspect=fixed;imageAspect=0;image=https://swimburger.net/media/0zcpmk1b/azure.jpg;" vertex="1" parent="1">
          <mxGeometry x="493.65" y="1620.7" width="28.6" height="28.6" as="geometry" />
        </mxCell>
        <mxCell id="ldPR4kNLQCRKK4Y74_K6-113" value="VALIDACIÓN DEL&amp;nbsp;&lt;div&gt;PLAN&lt;/div&gt;" style="verticalLabelPosition=middle;verticalAlign=middle;html=1;shape=trapezoid;perimeter=trapezoidPerimeter;whiteSpace=wrap;size=0.23;arcSize=10;flipV=1;labelPosition=center;align=center;" vertex="1" parent="1">
          <mxGeometry x="399.38" y="1190" width="156.25" height="110" as="geometry" />
        </mxCell>
        <mxCell id="ldPR4kNLQCRKK4Y74_K6-114" style="edgeStyle=orthogonalEdgeStyle;rounded=0;orthogonalLoop=1;jettySize=auto;html=1;exitX=0.5;exitY=1;exitDx=0;exitDy=0;entryX=0.5;entryY=0;entryDx=0;entryDy=0;entryPerimeter=0;" edge="1" parent="1" source="ldPR4kNLQCRKK4Y74_K6-113" target="ldPR4kNLQCRKK4Y74_K6-65">
          <mxGeometry relative="1" as="geometry" />
        </mxCell>
        <mxCell id="ldPR4kNLQCRKK4Y74_K6-116" value="Approve" style="edgeLabel;html=1;align=center;verticalAlign=middle;resizable=0;points=[];" vertex="1" connectable="0" parent="ldPR4kNLQCRKK4Y74_K6-114">
          <mxGeometry x="-0.0627" y="2" relative="1" as="geometry">
            <mxPoint as="offset" />
          </mxGeometry>
        </mxCell>
        <mxCell id="ldPR4kNLQCRKK4Y74_K6-115" value="" style="shape=image;verticalLabelPosition=bottom;labelBackgroundColor=default;verticalAlign=top;aspect=fixed;imageAspect=0;image=https://static-00.iconduck.com/assets.00/terraform-icon-1803x2048-hodrzd3t.png;" vertex="1" parent="1">
          <mxGeometry x="411.8" y="1190" width="26.4" height="30" as="geometry" />
        </mxCell>
      </root>
    </mxGraphModel>
  </diagram>
</mxfile>
